<svg width="16" height="17" viewBox="0 0 16 17" fill="none" xmlns="http://www.w3.org/2000/svg">
<path fill-rule="evenodd" clip-rule="evenodd" d="M11.8336 10.0655C11.6311 9.95063 10.6763 9.43357 10.4738 9.37612C10.3002 9.28995 10.1555 9.26122 10.0108 9.4623C9.86618 9.66338 9.46112 10.0943 9.34539 10.2092C9.22966 10.3241 9.11392 10.3528 8.91139 10.2379C8.70886 10.123 8.07233 9.89318 7.34901 9.20377C6.77034 8.65799 6.39421 7.99731 6.27848 7.79623C6.16275 7.59515 6.27848 7.48025 6.39421 7.39408C6.48101 7.3079 6.59675 7.16427 6.71248 7.04937C6.82821 6.93447 6.85714 6.84829 6.91501 6.73339C6.97288 6.58977 6.94394 6.47487 6.91501 6.38869C6.85714 6.27379 6.50995 5.29713 6.36528 4.89497C6.22061 4.49282 6.04702 4.55027 5.93128 4.55027C5.81555 4.55027 5.67089 4.52154 5.55515 4.52154C5.41049 4.52154 5.20796 4.55027 5.00542 4.75135C4.80289 4.95242 4.2821 5.41203 4.25316 6.38869C4.22423 7.36535 4.88969 8.34201 5.00542 8.48564C5.09222 8.62926 6.30741 10.7549 8.3038 11.6167C10.3002 12.4785 10.3291 12.2199 10.7052 12.1912C11.0814 12.1625 11.9204 11.7603 12.094 11.3007C12.2676 10.8411 12.2966 10.439 12.2387 10.3528C12.1519 10.2379 12.0362 10.1804 11.8336 10.0655ZM8.15913 14.8052C6.82821 14.8052 5.58409 14.4031 4.57143 13.7424L2.02532 14.518L2.83544 12.105C2.05425 11.0422 1.59132 9.72083 1.59132 8.28456C1.59132 4.6939 4.51356 1.79264 8.1302 1.79264C11.7468 1.79264 14.6691 4.6939 14.6691 8.28456C14.698 11.8752 11.7468 14.8052 8.15913 14.8052ZM8.15913 0.5C3.81917 0.5 0.289331 4.00449 0.289331 8.31329C0.289331 9.77828 0.694394 11.1571 1.41772 12.3348L0 16.5L4.33996 15.1212C5.46835 15.7531 6.77034 16.0978 8.1302 16.0978C12.4702 16.0978 16 12.5934 16 8.28456C16 4.00449 12.4991 0.5 8.15913 0.5Z" fill="#969BAB"/>
</svg>
